{"title":"A Good Day to Die Hard (2013) CamRip [Russian]","uid":8150598,"size":1469085696,"categoryP":"video","categoryS":"movies","magnet":"?xt=urn:btih:af0f8e52283d858f253d09e3f81734e60f548ec2&amp;dn=A+Good+Day+to+Die+Hard+%282013%29+CamRip+%5BRussian%5D&amp;tr=udp%3A%2F%2Ftracker.openbittorrent.com%3A80&amp;tr=udp%3A%2F%2Fopen.demonii.com%3A1337&amp;tr=udp%3A%2F%2Ftracker.coppersurfer.tk%3A6969&amp;tr=udp%3A%2F%2Fexodus.desync.com%3A6969","seeders":1,"leechers":0,"uploader":"yfjfrj","files":-1,"time":1361026205,"description":"Plot: John McClane travels to Russia to help out his seemingly wayward son, Jack, only to discover that Jack is a CIA operative working to prevent a nuclear-weapons heist, causing the father and son to team up against underworld forces. \n\nMediaInfo 0.7.61:\nGeneral\nComplete name                            : D:Krepkij.oreshek.Horoshij.den.chtoby.umeret.2013.D.CAMRip.1400MB.avi\nFormat                                   : AVI\nFormat/Info                              : Audio Video Interleave\nFile size                                : 1.37 GiB\nDuration                                 : 1h 31mn\nOverall bit rate                         : 2 137 Kbps\nWriting application                      : VirtualDubMod 1.5.10.3 | www.virtualdub-fr.org || (build 2550/release)\nWriting library                          : VirtualDubMod build 2550/release\n\nVideo\nID                                       : 0\nFormat                                   : MPEG-4 Visual\nFormat profile                           : Advanced Simple@L5\nFormat settings, BVOP                    : 2\nFormat settings, QPel                    : No\nFormat settings, GMC                     : No warppoints\nFormat settings, Matrix                  : Default (MPEG)\nMuxing mode                              : Packed bitstream\nCodec ID                                 : XVID\nCodec ID/Hint                            : XviD\nDuration                                 : 1h 31mn\nBit rate                                 : 1 936 Kbps\nWidth                                    : 720 pixels\nHeight                                   : 304 pixels\nDisplay aspect ratio                     : 2.35:1\nFrame rate                               : 25.000 fps\nColor space                              : YUV\nChroma subsampling                       : 4:2:0\nBit depth                                : 8 bits\nScan type                                : Progressive\nCompression mode                         : Lossy\nBits/(Pixel*Frame)                       : 0.354\nStream size                              : 1.24 GiB (91%)\nWriting library                          : XviD 73\n\nAudio\nID                                       : 1\nFormat                                   : MPEG Audio\nFormat version                           : Version 1\nFormat profile                           : Layer 3\nCodec ID                                 : 55\nCodec ID/Hint                            : MP3\nDuration                                 : 1h 31mn\nBit rate mode                            : Constant\nBit rate                                 : 192 Kbps\nChannel(s)                               : 2 channels\nSampling rate                            : 44.1 KHz\nCompression mode                         : Lossy\nStream size                              : 126 MiB (9%)\nAlignment                                : Split accross interleaves\nInterleave, duration                     : 40 ms (1.00 video frame)\nInterleave, preload duration             : 500 ms\n\nScreenshots: &lt;a href=&quot;\nhttp://img534.imageshack.us/img534/8283/grabl.png&quot; rel=&quot;nofollow&quot; target=&quot;_NEW&quot;&gt;\nhttp://img534.imageshack.us/img534/8283/grabl.png&lt;/a&gt; &lt;a href=&quot;\nhttp://img834.imageshack.us/img834/9055/grab2wg.png&quot; rel=&quot;nofollow&quot; target=&quot;_NEW&quot;&gt;\nhttp://img834.imageshack.us/img834/9055/grab2wg.png&lt;/a&gt; &lt;a href=&quot;\nhttp://img651.imageshack.us/img651/6976/grab3rz.png&quot; rel=&quot;nofollow&quot; target=&quot;_NEW&quot;&gt;\nhttp://img651.imageshack.us/img651/6976/grab3rz.png&lt;/a&gt; &lt;a href=&quot;\nhttp://img189.imageshack.us/img189/1001/grab4zv.png&quot; rel=&quot;nofollow&quot; target=&quot;_NEW&quot;&gt;\nhttp://img189.imageshack.us/img189/1001/grab4zv.png&lt;/a&gt; &lt;a href=&quot;\nhttp://img171.imageshack.us/img171/9140/grab5i.png&quot; rel=&quot;nofollow&quot; target=&quot;_NEW&quot;&gt;\nhttp://img171.imageshack.us/img171/9140/grab5i.png&lt;/a&gt; &lt;a href=&quot;\nhttp://img822.imageshack.us/img822/5863/grab6ah.png&quot; rel=&quot;nofollow&quot; target=&quot;_NEW&quot;&gt;\nhttp://img822.imageshack.us/img822/5863/grab6ah.png&lt;/a&gt; &lt;a href=&quot;\nhttp://img96.imageshack.us/img96/2734/grab7t.png&quot; rel=&quot;nofollow&quot; target=&quot;_NEW&quot;&gt;\nhttp://img96.imageshack.us/img96/2734/grab7t.png&lt;/a&gt; &lt;a href=&quot;\nhttp://img89.imageshack.us/img89/4393/grab8x.png&quot; rel=&quot;nofollow&quot; target=&quot;_NEW&quot;&gt;\nhttp://img89.imageshack.us/img89/4393/grab8x.png&lt;/a&gt; &lt;a href=&quot;\nhttp://img534.imageshack.us/img534/9079/grab9v.png&quot; rel=&quot;nofollow&quot; target=&quot;_NEW&quot;&gt;\nhttp://img534.imageshack.us/img534/9079/grab9v.png&lt;/a&gt; &lt;a href=&quot;\nhttp://img716.imageshack.us/img716/1735/grab10e.png&quot; rel=&quot;nofollow&quot; target=&quot;_NEW&quot;&gt;\nhttp://img716.imageshack.us/img716/1735/grab10e.png&lt;/a&gt; &lt;a href=&quot;\nhttp://img547.imageshack.us/img547/3012/grab11v.png&quot; rel=&quot;nofollow&quot; target=&quot;_NEW&quot;&gt;\nhttp://img547.imageshack.us/img547/3012/grab11v.png&lt;/a&gt; &lt;a href=&quot;\nhttp://img33.imageshack.us/img33/96/grab12in.png&quot; rel=&quot;nofollow&quot; target=&quot;_NEW&quot;&gt;\nhttp://img33.imageshack.us/img33/96/grab12in.png&lt;/a&gt;","torrent":{"xt":"urn:btih:af0f8e52283d858f253d09e3f81734e60f548ec2","amp;dn":"A+Good+Day+to+Die+Hard+%282013%29+CamRip+%5BRussian%5D","amp;tr":["udp%3A%2F%2Ftracker.openbittorrent.com%3A80","udp%3A%2F%2Fopen.demonii.com%3A1337","udp%3A%2F%2Ftracker.coppersurfer.tk%3A6969","udp%3A%2F%2Fexodus.desync.com%3A6969"],"infoHash":"af0f8e52283d858f253d09e3f81734e60f548ec2","infoHashBuffer":{"type":"Buffer","data":[175,15,142,82,40,61,133,143,37,61,9,227,248,23,52,230,15,84,142,194]},"announce":[],"urlList":[]}}